<?xml version="1.0" standalone="no"?>
<!DOCTYPE svg PUBLIC "-//W3C//DTD SVG 20010904//EN"
 "http://www.w3.org/TR/2001/REC-SVG-20010904/DTD/svg10.dtd">
<svg version="1.0" xmlns="http://www.w3.org/2000/svg"
 width="7730.000000pt" height="7730.000000pt" viewBox="0 0 7730.000000 7730.000000"
 preserveAspectRatio="xMidYMid meet">

<g transform="translate(0.000000,7730.000000) scale(0.100000,-0.100000)"
fill="#000000" stroke="none">
<path d="M60485 62299 l-3810 -3806 -155 147 c-476 453 -935 819 -1470 1175
-2254 1498 -4976 2076 -7662 1625 -2486 -418 -4764 -1732 -6396 -3689 -718
-860 -1298 -1833 -1713 -2869 -718 -1794 -930 -3783 -608 -5706 315 -1882
1138 -3650 2386 -5122 373 -440 879 -940 1333 -1315 209 -174 624 -489 643
-489 3 0 8 318 10 708 3 813 0 780 102 987 102 208 252 358 460 461 61 29 146
64 190 76 l80 23 1222 5 1222 5 -117 53 c-263 120 -660 344 -933 528 -1959
1315 -3129 3500 -3129 5844 0 1700 601 3307 1724 4610 127 148 465 489 631
638 1049 939 2378 1549 3765 1727 382 49 980 70 1347 46 1639 -106 3140 -754
4354 -1877 l160 -148 -380 -380 -379 -379 -149 135 c-181 166 -305 269 -487
406 -1511 1130 -3470 1471 -5291 922 -532 -161 -1082 -422 -1565 -743 -728
-485 -1352 -1138 -1802 -1887 -436 -725 -715 -1539 -813 -2375 -3 -27 -8 -63
-10 -80 -4 -36 -14 -161 -25 -345 -8 -131 -5 -528 5 -620 2 -25 7 -81 10 -125
34 -494 164 -1091 344 -1573 401 -1077 1074 -1988 1982 -2684 715 -548 1557
-929 2444 -1107 247 -49 467 -79 760 -101 119 -9 664 -13 745 -5 19 2 78 6
130 10 52 3 181 17 285 30 1132 143 2172 599 3070 1344 183 152 582 549 729
726 590 709 1003 1512 1219 2370 82 326 82 322 52 466 -36 173 -44 396 -20
540 20 123 70 267 121 353 l36 61 -7 190 c-25 707 -142 1318 -370 1930 -228
613 -581 1224 -989 1714 l-78 93 380 381 380 380 26 -29 c156 -175 378 -465
536 -699 524 -780 876 -1628 1060 -2555 53 -268 86 -505 116 -846 l6 -71 102
-6 c131 -8 284 -38 421 -81 105 -34 107 -34 102 -13 -2 12 -28 111 -56 220
-206 801 -344 1783 -389 2757 -6 128 -10 155 -22 155 -8 0 -98 -4 -200 -9
-201 -9 -261 -1 -352 45 -67 34 -142 116 -167 184 -21 57 -22 71 -19 335 l3
275 31 60 c60 114 192 210 324 235 41 8 2623 170 2707 170 28 0 -260 525 -487
886 -297 473 -671 973 -1021 1367 -63 71 -124 141 -136 155 l-21 27 3811 3818
3812 3818 -165 165 c-91 90 -167 163 -170 162 -3 -1 -1719 -1715 -3815 -3809z
m-10952 -8325 c533 -65 1028 -263 1455 -580 61 -46 112 -87 112 -91 0 -6 -630
-815 -655 -841 -2 -2 -32 19 -67 46 -280 219 -628 359 -1003 403 -125 15 -407
6 -528 -16 -315 -57 -610 -183 -852 -363 -109 -80 -275 -239 -358 -342 -301
-373 -465 -863 -443 -1325 30 -644 348 -1209 879 -1566 771 -517 1791 -428
2464 215 441 421 668 1036 602 1634 -23 212 -86 440 -173 627 l-44 93 406 318
c223 176 414 325 425 333 18 13 22 11 38 -10 37 -49 169 -318 222 -454 208
-529 264 -1103 161 -1665 -89 -489 -304 -958 -620 -1355 -108 -135 -335 -363
-469 -470 -309 -247 -695 -449 -1060 -554 -144 -42 -312 -78 -445 -96 -223
-31 -608 -31 -820 1 -364 54 -666 150 -980 310 -860 439 -1473 1282 -1624
2234 -26 161 -31 246 -31 510 0 271 7 340 55 580 253 1266 1302 2246 2590
2420 230 31 529 33 763 4z"/>
<path d="M56200 50719 c0 -282 -77 -919 -149 -1236 l-18 -81 56 -55 c320 -310
878 -580 1551 -752 191 -48 479 -108 605 -125 330 -43 338 -46 423 -123 148
-137 111 -357 -75 -449 -89 -44 -190 -48 -398 -18 -876 126 -1710 415 -2257
782 -48 32 -89 58 -92 58 -2 0 -12 -24 -21 -52 -38 -115 -141 -381 -207 -533
-583 -1332 -1584 -2471 -2833 -3222 -197 -119 -416 -236 -611 -328 l-158 -75
1660 0 c913 0 3126 -3 4917 -7 l3257 -6 0 261 0 262 -2172 2 -2173 3 392 210
391 210 91 155 c172 295 360 661 506 983 l49 107 123 -362 c68 -200 150 -439
182 -533 l59 -170 383 -3 384 -2 409 1112 c225 612 411 1118 413 1124 2 5 -18
20 -45 32 -160 73 -231 244 -156 382 57 105 143 154 310 177 l114 16 21 56
c11 31 45 121 74 201 29 80 58 158 65 175 8 22 -24 -5 -122 -101 -73 -71 -175
-163 -226 -202 -419 -322 -895 -464 -1380 -411 -441 47 -873 226 -1232 508
-127 100 -395 370 -504 506 -108 136 -293 412 -376 562 -61 110 -62 112 -88
101 -45 -18 -181 -15 -243 5 -73 24 -146 80 -184 141 -33 54 -31 34 -23 296 4
116 -14 161 -94 246 -125 132 -326 224 -529 241 l-69 6 0 -74z"/>
<path d="M25391 46080 c-38 -61 -61 -64 -107 -15 -17 19 -37 35 -43 35 -13 0
-31 -18 -104 -103 -88 -104 -227 -194 -413 -271 -130 -53 -270 -91 -536 -146
-324 -67 -565 -144 -773 -247 -410 -203 -627 -477 -660 -836 -9 -98 -23 -109
-98 -77 -98 43 -207 11 -308 -90 -83 -82 -104 -142 -103 -295 0 -104 4 -132
28 -205 66 -202 171 -359 372 -557 74 -73 134 -137 134 -143 0 -6 -26 -35 -58
-65 -106 -99 -104 -168 7 -275 101 -98 324 -208 526 -259 157 -39 391 -50 446
-20 23 12 24 39 3 147 -17 82 -18 83 -58 104 -64 32 -171 122 -239 202 -240
282 -262 564 -52 652 158 65 314 -66 433 -365 19 -47 36 -87 37 -89 2 -2 18 3
37 11 43 18 78 61 78 95 0 14 -24 77 -54 141 -104 226 -147 418 -117 529 17
61 69 115 138 141 32 12 229 74 438 137 812 246 1152 400 1371 618 96 95 150
196 185 341 30 125 23 309 -15 438 -27 91 -74 192 -123 263 -86 127 -245 254
-317 254 -18 0 -32 -12 -55 -50z"/>
<path d="M21460 41534 c-19 -2 -91 -9 -160 -14 -468 -40 -1100 -190 -1630
-387 -477 -178 -950 -415 -1320 -662 -203 -136 -555 -415 -555 -440 0 -5 83
-104 184 -220 351 -403 676 -816 898 -1142 l99 -147 65 56 c280 241 650 441
1074 579 154 51 324 98 330 92 5 -5 -100 -392 -240 -883 -322 -1134 -705
-2312 -1084 -3340 -45 -121 -81 -221 -81 -222 0 -1 37 -28 83 -60 282 -196
496 -423 537 -568 56 -200 -103 -435 -452 -666 -189 -126 -388 -220 -462 -220
-45 0 -105 46 -169 130 -27 36 -52 66 -56 67 -3 2 -46 -90 -95 -205 -97 -227
-105 -266 -71 -350 17 -42 87 -112 112 -112 20 0 16 -25 -31 -170 -35 -111
-41 -141 -35 -175 7 -35 -7 -88 -108 -415 -558 -1817 -1125 -3472 -1455 -4255
l-63 -150 -140 -27 c-690 -134 -1253 -302 -1685 -502 -309 -143 -450 -245
-730 -525 -494 -495 -1211 -1416 -1980 -2543 l-94 -138 24 -42 c173 -309 429
-620 640 -781 111 -84 313 -179 343 -160 9 5 3775 2614 4567 3163 69 48 178
125 242 171 l117 84 1622 1888 1622 1887 121 0 c303 1 589 26 1106 100 950
136 1769 296 2386 466 586 160 1045 346 1227 496 l47 39 0 -98 c0 -379 179
-854 501 -1328 498 -733 1353 -1481 2490 -2178 215 -132 555 -327 570 -327 28
0 257 215 378 355 155 179 257 342 312 499 l30 86 -1352 2227 c-743 1226
-1372 2260 -1397 2298 -209 315 -437 499 -707 570 -180 47 -417 43 -790 -15
-833 -130 -2369 -312 -3320 -394 -159 -14 -317 -28 -350 -31 -52 -4 -57 -3
-38 7 12 7 191 256 399 553 207 297 646 925 974 1395 328 470 870 1247 1204
1725 334 479 611 870 616 870 5 0 44 -52 86 -115 206 -308 405 -552 663 -811
257 -257 432 -399 680 -553 113 -70 320 -180 327 -173 3 2 16 58 29 123 110
527 398 1104 802 1603 130 160 131 162 117 168 -6 2 -56 34 -112 71 -615 409
-1090 1112 -1407 2082 -49 150 -135 475 -135 510 0 12 -12 26 -30 35 -96 50
-768 295 -1162 423 -335 110 -787 245 -801 239 -7 -3 -25 -93 -45 -227 -35
-245 -52 -294 -122 -351 -41 -34 -146 -70 -310 -106 -141 -30 -428 -43 -561
-24 -294 42 -554 169 -762 375 -35 34 -77 85 -93 112 -26 44 -29 58 -29 134
l0 85 98 193 c54 107 97 195 95 197 -15 14 -604 78 -868 95 -150 9 -645 12
-730 4z"/>
<path d="M33307 28955 c-401 -113 -765 -251 -1097 -416 -462 -230 -801 -464
-1110 -766 l-135 -132 57 -55 c74 -71 100 -122 106 -211 3 -55 -1 -82 -17
-125 -45 -119 -191 -272 -327 -340 -93 -47 -185 -52 -276 -15 -24 10 -24 -29
3 -158 57 -284 182 -520 370 -704 94 -90 213 -176 284 -202 108 -41 248 -21
349 48 128 88 645 584 878 842 610 676 1029 1346 1233 1971 52 157 54 194 15
249 -28 38 -75 59 -132 58 -24 0 -114 -20 -201 -44z"/>
<path d="M11245 23319 c-171 -25 -410 -123 -488 -201 -66 -66 -99 -144 -104
-248 -4 -72 1 -112 32 -255 280 -1305 764 -2374 1376 -3046 44 -48 96 -95 115
-104 73 -34 164 -2 198 70 28 57 111 404 150 620 78 434 101 714 93 1138 -7
392 -35 614 -114 922 -29 115 -107 362 -117 373 -2 1 -33 -12 -70 -29 -59 -28
-74 -31 -139 -27 -102 5 -153 33 -262 142 -113 113 -184 239 -193 341 -6 82
17 158 64 213 22 26 33 47 28 52 -5 5 -63 19 -128 30 -125 21 -326 25 -441 9z"/>
</g>
</svg>
